:SAMPLES-PER-SECOND 30
:FULLY-SPECIFIED
:DEGREES
244
root  -21.646 43.4889 4.31281 82.2932 76.7858 74.2524
RightUpLeg  3.06307 -11.718 -12.4365
RightLeg  0.96742 -16.4683 1.50587
RightFoot  27.4741 -10.1788 29.4486
RightToes  -5.8209e-011 0 -3.6325e-017
Spine  9.74759 3.13507 4.26178
Spine1  -7.113 8.06741 -38.5703
HEad  4.69454 31.4404 -10.3308
LeftShoulder1  0.658949 -0.674292 -8.48732
LeftArm  17.7052 -8.77743 -49.0088
LeftForeArm  16.6513 -66.3705 -24.9785
LeftHand  -1.20927 -3.39346 16.1718
RightShoulder  0.134845 -7.94492 -13.5796
RightArm  -84.1746 20.8192 11.0032
RightForeArm  -8.32565 73.0658 53.7058
RightHand  -1.21081 -1.92327 -15.9206
LeftUpLeg  -37.428 -3.1943 8.00097
LeftLeg  52.4718 8.80104 12.5787
LeftFoot  5.41767 2.4836 -17.0411
LeftToes  6.82088e-011 -2.45093e-011 5.71991e-013
245
root  -20.0979 44.7318 4.42682 78.2709 76.6405 69.6749
RightUpLeg  5.12333 -12.103 -12.9642
RightLeg  0.0751395 -18.1257 2.67096
RightFoot  32.704 -12.4148 30.7362
RightToes  -5.8209e-011 0 -3.6325e-017
Spine  10.8996 4.36897 9.59406
Spine1  -10.5028 9.56365 -48.6723
HEad  8.09226 34.5451 -8.27409
LeftShoulder1  0.976739 -3.83458 -5.34109
LeftArm  17.5671 -7.01346 -56.7913
LeftForeArm  32.1486 -72.9016 -38.3284
LeftHand  -1.13616 -3.10884 15.6776
RightShoulder  0.229713 -5.32604 -22.5273
RightArm  -82.6682 28.7305 7.4301
RightForeArm  -48.3554 45.1593 11.3738
RightHand  -0.67354 -13.1013 15.5122
LeftUpLeg  -37.3086 0.145288 5.7229
LeftLeg  38.8662 8.81604 8.00514
LeftFoot  11.4609 3.48511 -17.4611
LeftToes  6.82088e-011 -2.45093e-011 5.71991e-013
246
root  -18.406 45.6406 4.58014 84.1369 77.7014 76.6352
RightUpLeg  5.26444 -11.0806 -11.138
RightLeg  9.40812 -4.43896 0.308982
RightFoot  27.2779 -9.19443 26.2618
RightToes  -5.8209e-011 0 -3.6325e-017
Spine  9.744 4.38852 7.69849
Spine1  -8.13367 10.0273 -45.9279
HEad  4.82611 38.3647 -7.40446
LeftShoulder1  0.966034 -3.5405 -6.14964
LeftArm  15.982 1.50505 -59.3036
LeftForeArm  90.7824 -79.5108 -95.9818
LeftHand  -0.886313 -2.83496 12.6958
RightShoulder  0.228635 -5.18326 -24.7885
RightArm  -75.2097 32.4454 6.80858
RightForeArm  -41.2039 42.4579 12.5371
RightHand  -0.61633 -7.91387 20.6133
LeftUpLeg  -34.3919 3.15748 2.76954
LeftLeg  26.5044 5.54457 3.34317
LeftFoot  14.99 5.0819 -21.8724
LeftToes  6.82088e-011 -2.45093e-011 5.71991e-013
247
root  -16.6243 45.9853 4.67499 106.446 79.0616 100.684
RightUpLeg  5.92943 -13.8848 -9.38833
RightLeg  21.647 6.7636 2.50498
RightFoot  21.7939 -6.324 21.6882
RightToes  -5.8209e-011 0 -3.6325e-017
Spine  6.48017 3.88197 3.24594
Spine1  -0.893474 10.5969 -37.5197
HEad  1.01882 39.1326 -6.32371
LeftShoulder1  0.759517 -0.719971 -10.7896
LeftArm  19.1497 8.97421 -56.856
LeftForeArm  136.824 -74.0987 -141.422
LeftHand  -0.67829 -2.75998 9.9054
RightShoulder  0.384945 -7.52016 -20.6163
RightArm  -68.2445 31.7115 8.29477
RightForeArm  -22.8626 63.4141 27.2023
RightHand  -0.139558 -1.85014 0.935414
LeftUpLeg  -31.3971 4.02796 0.189261
LeftLeg  18.5584 2.21404 1.05864
LeftFoot  16.7844 6.90753 -27.5532
LeftToes  6.82088e-011 -2.45093e-011 5.71991e-013
248
root  -14.8749 45.9254 4.64685 132.471 79.4859 128.45
RightUpLeg  7.01241 -19.7134 -9.49333
RightLeg  33.8203 6.43916 4.17514
RightFoot  23.4049 -7.71406 24.74
RightToes  -5.8209e-011 0 -3.6325e-017
Spine  4.32785 4.03606 2.11923
Spine1  5.46596 11.3529 -31.2079
HEad  0.264783 37.0015 -5.21432
LeftShoulder1  0.545609 0.92814 -14.0012
LeftArm  21.5909 15.541 -53.3452
LeftForeArm  142.552 -71.6343 -146.976
LeftHand  -0.664845 -2.98503 9.44353
RightShoulder  0.432623 -9.93383 -17.0791
RightArm  -63.4197 27.4368 11.3559
RightForeArm  19.9918 77.4113 66.7368
RightHand  -1.90383 5.46595 -21.0828
LeftUpLeg  -28.5564 2.81742 -0.270788
LeftLeg  15.2132 2.20067 0.702164
LeftFoot  17.9025 7.37172 -28.1924
LeftToes  6.82088e-011 -2.45093e-011 5.71991e-013
249
root  -13.2 45.5253 4.53468 147.647 79.9705 145.291
RightUpLeg  7.43409 -23.2664 -11.4192
RightLeg  46.1059 0.360545 -0.0311312
RightFoot  29.1267 -10.2414 27.9716
RightToes  -5.8209e-011 0 -3.6325e-017
Spine  3.88241 4.87225 3.76401
Spine1  8.44395 12.3148 -28.3841
HEad  0.124139 35.5426 -5.10402
LeftShoulder1  0.513169 0.910637 -12.7343
LeftArm  19.7129 25.0701 -51.3466
LeftForeArm  141.432 -71.6934 -146.601
LeftHand  -0.70366 -2.92898 10.0492
RightShoulder  0.4423 -10.3497 -16.9318
RightArm  -57.593 19.9697 14.1565
RightForeArm  60.372 77.641 106.358
RightHand  -3.63447 8.14366 -31.1639
LeftUpLeg  -25.299 0.924013 0.50857
LeftLeg  14.3393 3.96904 1.10635
LeftFoot  18.6236 6.5164 -24.4757
LeftToes  6.82088e-011 -2.45093e-011 5.71991e-013
250
root  -11.5348 44.6797 4.40344 151.996 81.2533 151.121
RightUpLeg  6.41554 -22.2302 -14.0552
RightLeg  58.4492 -3.15399 -5.853
RightFoot  34.3906 -10.4127 25.0116
RightToes  -5.8209e-011 0 -3.6325e-017
Spine  3.41771 5.71793 4.21361
Spine1  10.6423 13.0589 -26.2774
HEad  -2.37292 36.4987 -5.81075
LeftShoulder1  0.419937 1.11709 -10.2615
LeftArm  17.3588 36.1549 -47.7831
LeftForeArm  143.043 -70.2152 -149.359
LeftHand  -0.755141 -2.66509 11.088
RightShoulder  0.261428 -8.62067 -15.1903
RightArm  -51.6394 11.1725 14.794
RightForeArm  85.1638 73.9426 132.107
RightHand  -2.47871 5.22079 -26.8822
LeftUpLeg  -21.593 -0.253685 0.601046
LeftLeg  13.765 4.64482 1.38201
LeftFoot  20.3743 6.47139 -22.9339
LeftToes  6.82088e-011 -2.45093e-011 5.71991e-013
251
root  -9.80211 43.3995 4.27171 153.228 83.1837 153.389
RightUpLeg  4.10713 -18.7194 -16.175
RightLeg  68.5861 -2.73137 -8.29652
RightFoot  36.9973 -9.09501 20.6787
RightToes  -5.8209e-011 0 -3.6325e-017
Spine  2.12369 6.60494 3.82621
Spine1  13.2603 13.7867 -23.9867
HEad  -5.97416 37.4093 -6.47608
LeftShoulder1  0.267569 1.94115 -9.78483
LeftArm  19.3268 44.8777 -39.4806
LeftForeArm  145.062 -67.9448 -152.92
LeftHand  -0.890718 -2.71045 12.9548
RightShoulder  0.0247726 -6.46873 -10.4982
RightArm  -46.1619 3.32581 14.5899
RightForeArm  106.519 67.6744 149.06
RightHand  -2.12728 4.93504 -23.861
LeftUpLeg  -17.9941 -0.122111 0.158281
LeftLeg  13.1402 3.27463 0.877364
LeftFoot  22.4999 7.3929 -24.5539
LeftToes  6.82088e-011 -2.45093e-011 5.71991e-013
252
root  -8.07479 41.779 4.14943 159.011 85.0498 159.663
RightUpLeg  0.999478 -14.7874 -17.5702
RightLeg  76.0764 -1.51161 -8.31494
RightFoot  35.259 -8.13492 19.3563
RightToes  -5.8209e-011 0 -3.6325e-017
Spine  1.3252 7.72962 4.29633
Spine1  14.524 14.5386 -22.2518
HEad  -8.1213 36.2501 -6.74255
LeftShoulder1  0.229565 2.12792 -9.34442
LeftArm  26.4401 51.1474 -29.0658
LeftForeArm  146.045 -66.4275 -154.852
LeftHand  -0.998753 -3.1112 13.8528
RightShoulder  -0.033164 -4.8836 -7.08498
RightArm  -39.2503 -4.79284 16.4731
RightForeArm  121.338 62.0337 156.956
RightHand  -2.67407 6.59155 -25.8274
LeftUpLeg  -15.8392 0.999001 -0.672387
LeftLeg  15.3383 0.912826 0.187661
LeftFoot  19.5936 6.01702 -21.7472
LeftToes  6.82088e-011 -2.45093e-011 5.71991e-013
253
root  -6.52774 39.8802 4.09208 164.457 84.7079 165.455
RightUpLeg  -1.80547 -12.2241 -20.1295
RightLeg  81.5089 -0.567151 -7.2851
RightFoot  30.0315 -7.37816 19.9547
RightToes  -5.8209e-011 0 -3.6325e-017
Spine  2.31564 8.06832 3.2346
Spine1  14.102 13.8358 -20.3711
HEad  -10.3501 34.604 -7.68813
LeftShoulder1  0.239005 1.94543 -7.64126
LeftArm  34.449 55.0943 -21.9322
LeftForeArm  148.694 -65.3765 -156.291
LeftHand  -0.973019 -3.90619 12.4044
RightShoulder  -0.00281955 -3.63462 -5.55711
RightArm  -31.5411 -13.7548 20.238
RightForeArm  133.131 58.5074 160.669
RightHand  -2.54368 6.48767 -24.6792
LeftUpLeg  -15.9878 0.218787 -2.98418
LeftLeg  23.109 1.07921 0.942571
LeftFoot  7.00149 1.81184 -10.4298
LeftToes  6.82088e-011 -2.45093e-011 5.71991e-013
254
root  -5.15678 37.9213 4.14715 160.798 80.8579 162.398
RightUpLeg  -3.2978 -11.7868 -24.8159
RightLeg  84.6018 -0.0481061 -5.65425
RightFoot  23.9288 -6.39405 20.4716
RightToes  -5.8209e-011 0 -3.6325e-017
Spine  4.23283 6.55102 -1.24233
Spine1  14.5231 10.9647 -17.5223
HEad  -15.5139 34.2866 -10.3029
LeftShoulder1  0.142814 2.56717 -8.90319
LeftArm  33.9547 52.8687 -22.1447
LeftForeArm  150.749 -65.7771 -156.118
LeftHand  -0.968722 -4.69289 11.4058
RightShoulder  0.0740285 -2.54753 -1.1048
RightArm  -26.5855 -19.8733 23.848
RightForeArm  144.473 57.4926 162.261
RightHand  -1.92008 6.09458 -19.6331
LeftUpLeg  -17.1376 -5.08543 -6.54485
LeftLeg  33.86 5.30844 4.24351
LeftFoot  -10.1642 -0.0512734 1.32043
LeftToes  6.82088e-011 -2.45093e-011 5.71991e-013
255
root  -3.82779 36.4386 4.30847 157.783 75.7566 159.936
RightUpLeg  -4.76003 -11.6131 -28.9022
RightLeg  84.4318 -0.0579946 -5.49921
RightFoot  18.2288 -5.43295 20.888
RightToes  -5.8209e-011 0 -3.6325e-017
Spine  5.0752 4.3477 -5.74405
Spine1  18.0457 8.35403 -15.4146
HEad  -21.8863 34.0725 -13.5158
LeftShoulder1  0.175028 2.8205 -16.2275
LeftArm  23.6891 40.6882 -26.4043
LeftForeArm  143.853 -69.3843 -150.564
LeftHand  -1.1481 -4.3826 13.8964
RightShoulder  0.274084 -1.72766 7.95354
RightArm  -25.018 -21.7234 28.792
RightForeArm  150.511 60.4902 160.718
RightHand  -2.09845 7.34036 -19.1848
LeftUpLeg  -18.0785 -10.173 -9.59102
LeftLeg  43.3211 6.88017 7.2356
LeftFoot  -21.2918 0.416296 3.88121
LeftToes  6.82088e-011 -2.45093e-011 5.71991e-013
256
root  -2.46429 35.8915 4.54474 157.498 72.9889 159.891
RightUpLeg  -7.93878 -9.34783 -28.9296
RightLeg  80.4906 -0.978023 -9.04474
RightFoot  12.694 -4.23292 20.0459
RightToes  -5.8209e-011 0 -3.6325e-017
Spine  4.38721 3.34841 -6.59125
Spine1  22.8414 8.36241 -15.6698
HEad  -24.3071 32.6862 -14.9576
LeftShoulder1  0.91705 0.62687 -25.3793
LeftArm  12.7884 21.6306 -29.845
LeftForeArm  121.916 -75.181 -134.345
LeftHand  -1.42712 -3.48962 18.7471
RightShoulder  0.60447 -0.89721 16.6933
RightArm  -25.1274 -22.4 38.0446
RightForeArm  141.103 69.0375 150.137
RightHand  -3.06456 8.68159 -25.179
LeftUpLeg  -17.3165 -11.675 -10.1764
LeftLeg  47.1812 5.36131 6.63422
LeftFoot  -24.5471 0.328019 1.50769
LeftToes  6.82088e-011 -2.45093e-011 5.71991e-013
